<svg width="16" height="19" viewBox="0 0 16 19" fill="none" xmlns="http://www.w3.org/2000/svg">
<path fill-rule="evenodd" clip-rule="evenodd" d="M15 11C15 14.866 11.866 18 8 18C4.13401 18 1 14.866 1 11C1 7.13401 4.13401 4 8 4C9.85652 4 11.637 4.7375 12.9497 6.05025C14.2625 7.36301 15 9.14348 15 11Z" stroke="white" stroke-width="2" stroke-linecap="round" stroke-linejoin="round"/>
<path fill-rule="evenodd" clip-rule="evenodd" d="M9 11.4648C9 12.2933 8.32843 12.9648 7.5 12.9648C6.67157 12.9648 6 12.2933 6 11.4648C6 10.6364 6.67157 9.96484 7.5 9.96484C8.32843 9.96484 9 10.6364 9 11.4648Z" stroke="white" stroke-width="2" stroke-linecap="round" stroke-linejoin="round"/>
<path d="M7 4C7 4.55228 7.44771 5 8 5C8.55228 5 9 4.55228 9 4H7ZM9 1C9 0.447715 8.55228 0 8 0C7.44771 0 7 0.447715 7 1H9ZM11.6721 8.70711C12.0626 8.31658 12.0626 7.68342 11.6721 7.29289C11.2816 6.90237 10.6484 6.90237 10.2579 7.29289L11.6721 8.70711ZM7.85789 9.69289C7.46736 10.0834 7.46736 10.7166 7.85789 11.1071C8.24841 11.4976 8.88158 11.4976 9.2721 11.1071L7.85789 9.69289ZM10 2.00002C10.5523 2.00002 11 1.55231 11 1.00002C11 0.447737 10.5523 2.15769e-05 10 2.15769e-05V2.00002ZM6.00001 2.15769e-05C5.44773 2.15769e-05 5.00001 0.447737 5.00001 1.00002C5.00001 1.55231 5.44773 2.00002 6.00001 2.00002V2.15769e-05ZM15.74 4.57267C16.1115 4.16401 16.0813 3.53156 15.6727 3.16006C15.264 2.78855 14.6316 2.81867 14.2601 3.22732L15.74 4.57267ZM12.2601 5.42732C11.8886 5.83598 11.9187 6.46843 12.3273 6.83994C12.736 7.21144 13.3684 7.18133 13.74 6.77267L12.2601 5.42732ZM1.70711 3.19289C1.31658 2.80236 0.683417 2.80236 0.292893 3.19289C-0.0976311 3.58341 -0.0976311 4.21658 0.292893 4.6071L1.70711 3.19289ZM2.39289 6.7071C2.78342 7.09763 3.41658 7.09763 3.80711 6.7071C4.19763 6.31658 4.19763 5.68341 3.80711 5.29289L2.39289 6.7071ZM9 4V1H7V4H9ZM10.2579 7.29289L7.85789 9.69289L9.2721 11.1071L11.6721 8.70711L10.2579 7.29289ZM10 2.15769e-05H6.00001V2.00002H10V2.15769e-05ZM14.2601 3.22732L12.2601 5.42732L13.74 6.77267L15.74 4.57267L14.2601 3.22732ZM0.292893 4.6071L2.39289 6.7071L3.80711 5.29289L1.70711 3.19289L0.292893 4.6071Z" fill="white"/>
</svg>
