<svg width="12" height="19" viewBox="0 0 12 19" fill="none" xmlns="http://www.w3.org/2000/svg">
<path d="M4.53939 6.83668L4.46542 12.9885C4.44702 13.523 4.65388 14.0407 5.03556 14.4153C5.41725 14.79 5.9387 14.9871 6.47277 14.9588C7.64002 14.9092 8.55402 13.9365 8.53092 12.7685L8.63513 4.50089C8.66555 3.56922 8.30146 2.66796 7.63243 2.01886C6.9634 1.36975 6.05154 1.03307 5.12122 1.09164C3.12045 1.23356 1.55764 2.87704 1.51653 4.88242L1.40999 13.6442C1.43301 14.8513 1.95146 15.9959 2.84371 16.8093C3.73596 17.6227 4.92346 18.0334 6.12759 17.945C8.90207 17.7198 11.0474 15.4167 11.0755 12.6332L11.1729 4.36057" stroke="black" stroke-width="1.5" stroke-linecap="round" stroke-linejoin="round"/>
</svg>
