<svg width="42" height="42" viewBox="0 0 42 42" fill="none" xmlns="http://www.w3.org/2000/svg">
<circle cx="21" cy="21" r="21" fill="#553D8E"/>
<path d="M15.9999 16.3459C15.5857 16.3459 15.2499 16.6817 15.2499 17.0959C15.2499 17.5101 15.5857 17.8459 15.9999 17.8459V16.3459ZM25.9998 17.8459C26.414 17.8459 26.7498 17.5101 26.7498 17.0959C26.7498 16.6817 26.414 16.3459 25.9998 16.3459V17.8459ZM17.2499 20.0017C16.8357 20.0017 16.4999 20.3375 16.4999 20.7517C16.4999 21.1659 16.8357 21.5017 17.2499 21.5017V20.0017ZM24.7498 21.5017C25.164 21.5017 25.4998 21.1659 25.4998 20.7517C25.4998 20.3375 25.164 20.0017 24.7498 20.0017V21.5017ZM16.2329 11V10.25L16.2275 10.25L16.2329 11ZM25.7685 11L25.7742 10.25H25.7685V11ZM30.9999 16.3099L30.2499 16.3044V16.3099H30.9999ZM30.9999 22.757H30.2498L30.2499 22.7625L30.9999 22.757ZM29.4832 26.4957L28.949 25.9693L28.949 25.9693L29.4832 26.4957ZM25.7671 28.0669V28.8169L25.7725 28.8169L25.7671 28.0669ZM16.2329 28.0669V27.3169C16.1045 27.3169 15.9783 27.3499 15.8662 27.4126L16.2329 28.0669ZM11.0001 30.9997H10.2501C10.2501 31.266 10.3913 31.5122 10.621 31.6468C10.8507 31.7814 11.1346 31.7841 11.3668 31.654L11.0001 30.9997ZM11.0001 16.3099H11.7502L11.7501 16.3044L11.0001 16.3099ZM12.5168 12.5712L11.9826 12.0447H11.9826L12.5168 12.5712ZM15.9999 17.8459H25.9998V16.3459H15.9999V17.8459ZM17.2499 21.5017H24.7498V20.0017H17.2499V21.5017ZM16.2329 11.75H25.7685V10.25H16.2329V11.75ZM25.7628 11.75C28.2595 11.7689 30.2682 13.8078 30.2499 16.3044L31.7498 16.3154C31.7743 12.9905 29.0991 10.2752 25.7742 10.25L25.7628 11.75ZM30.2499 16.3099V22.757H31.7499V16.3099H30.2499ZM30.2499 22.7625C30.2587 23.9616 29.7908 25.1152 28.949 25.9693L30.0174 27.0222C31.1384 25.8847 31.7616 24.3484 31.7498 22.7515L30.2499 22.7625ZM28.949 25.9693C28.1073 26.8234 26.9608 27.3082 25.7616 27.3169L25.7725 28.8169C27.3695 28.8052 28.8965 28.1597 30.0174 27.0222L28.949 25.9693ZM25.7671 27.3169H16.2329V28.8169H25.7671V27.3169ZM15.8662 27.4126L10.6335 30.3455L11.3668 31.654L16.5996 28.7211L15.8662 27.4126ZM11.7501 30.9997V16.3099H10.2501V30.9997H11.7501ZM11.7501 16.3044C11.7413 15.1053 12.2092 13.9517 13.051 13.0976L11.9826 12.0447C10.8616 13.1822 10.2384 14.7185 10.2502 16.3154L11.7501 16.3044ZM13.051 13.0976C13.8927 12.2435 15.0392 11.7587 16.2384 11.75L16.2275 10.25C14.6305 10.2617 13.1035 10.9072 11.9826 12.0447L13.051 13.0976Z" fill="white"/>
</svg>
