<svg width="13" height="17" viewBox="0 0 13 17" fill="none" xmlns="http://www.w3.org/2000/svg">
<path fill-rule="evenodd" clip-rule="evenodd" d="M10.8405 5.375H2.15921C1.67999 5.375 1.2915 5.76349 1.2915 6.24271V13.1875C1.2915 14.6257 2.45743 15.7917 3.89567 15.7917H9.104C9.79467 15.7917 10.4571 15.5173 10.9454 15.0289C11.4338 14.5405 11.7082 13.8782 11.7082 13.1875V6.24271C11.7082 5.76349 11.3197 5.375 10.8405 5.375Z" stroke="black" stroke-width="1.5" stroke-linecap="round" stroke-linejoin="round"/>
<path fill-rule="evenodd" clip-rule="evenodd" d="M9.625 3.29183L8.87083 1.78454C8.69452 1.43169 8.33403 1.20871 7.93958 1.2085H5.06042C4.66597 1.20871 4.30548 1.43169 4.12917 1.78454L3.375 3.29183H9.625Z" stroke="black" stroke-width="1.5" stroke-linecap="round" stroke-linejoin="round"/>
<path d="M5.51338 8.8472C5.51338 8.43299 5.17759 8.0972 4.76338 8.0972C4.34917 8.0972 4.01338 8.43299 4.01338 8.8472H5.51338ZM4.01338 12.3191C4.01338 12.7333 4.34917 13.0691 4.76338 13.0691C5.17759 13.0691 5.51338 12.7333 5.51338 12.3191H4.01338ZM8.9863 8.8472C8.9863 8.43299 8.65051 8.0972 8.2363 8.0972C7.82208 8.0972 7.4863 8.43299 7.4863 8.8472H8.9863ZM7.4863 12.3191C7.4863 12.7333 7.82208 13.0691 8.2363 13.0691C8.65051 13.0691 8.9863 12.7333 8.9863 12.3191H7.4863ZM9.62484 2.54199C9.21062 2.54199 8.87484 2.87778 8.87484 3.29199C8.87484 3.70621 9.21062 4.04199 9.62484 4.04199V2.54199ZM11.7082 4.04199C12.1224 4.04199 12.4582 3.70621 12.4582 3.29199C12.4582 2.87778 12.1224 2.54199 11.7082 2.54199V4.04199ZM3.37484 4.04199C3.78905 4.04199 4.12484 3.70621 4.12484 3.29199C4.12484 2.87778 3.78905 2.54199 3.37484 2.54199V4.04199ZM1.2915 2.54199C0.87729 2.54199 0.541504 2.87778 0.541504 3.29199C0.541504 3.70621 0.87729 4.04199 1.2915 4.04199V2.54199ZM4.01338 8.8472V12.3191H5.51338V8.8472H4.01338ZM7.4863 8.8472V12.3191H8.9863V8.8472H7.4863ZM9.62484 4.04199H11.7082V2.54199H9.62484V4.04199ZM3.37484 2.54199H1.2915V4.04199H3.37484V2.54199Z" fill="black"/>
</svg>
