<svg width="42" height="42" viewBox="0 0 42 42" fill="none" xmlns="http://www.w3.org/2000/svg">
<circle cx="21" cy="21" r="21" fill="#553D8E"/>
<path fill-rule="evenodd" clip-rule="evenodd" d="M33 21.3929C33 25.4754 27.8513 28.7857 21.5 28.7857C15.1487 28.7857 10 25.4754 10 21.3929C10 17.3104 15.1487 14 21.5 14C27.8513 14 33 17.3104 33 21.3929Z" stroke="white" stroke-width="2" stroke-linecap="round" stroke-linejoin="round"/>
<path fill-rule="evenodd" clip-rule="evenodd" d="M24.3752 21.3928C24.4107 22.4431 23.8706 23.4292 22.9665 23.9649C22.0623 24.5006 20.938 24.5006 20.0339 23.9649C19.1297 23.4292 18.5897 22.4431 18.6252 21.3928C18.5897 20.3425 19.1297 19.3564 20.0339 18.8207C20.938 18.285 22.0623 18.285 22.9665 18.8207C23.8706 19.3564 24.4107 20.3425 24.3752 21.3928V21.3928Z" stroke="white" stroke-width="2" stroke-linecap="round" stroke-linejoin="round"/>
</svg>
