<svg width="16" height="19" viewBox="0 0 16 19" fill="none" xmlns="http://www.w3.org/2000/svg">
<path fill-rule="evenodd" clip-rule="evenodd" d="M1.00023 5.725V3.061C0.983536 1.93965 1.87888 1.01699 3.00023 1H13.0002C14.1216 1.01699 15.0169 1.93965 15.0002 3.061V5.725C15.001 5.99684 14.8959 6.25831 14.7072 6.454L10.2932 10C10.1045 10.1957 9.99946 10.4572 10.0002 10.729V15.938C10.0024 16.3242 9.78909 16.6794 9.44723 16.859L7.44723 17.889C7.133 18.0462 6.75933 18.0269 6.46292 17.8383C6.16652 17.6496 5.99087 17.3192 6.00023 16.968V10.729C6.001 10.4572 5.89592 10.1957 5.70723 10L1.29323 6.453C1.10479 6.25755 0.999717 5.9965 1.00023 5.725Z" stroke="black" stroke-width="1.5" stroke-linecap="round" stroke-linejoin="round"/>
</svg>
