<svg width="17" height="17" viewBox="0 0 17 17" fill="none" xmlns="http://www.w3.org/2000/svg">
<path fill-rule="evenodd" clip-rule="evenodd" d="M11.625 4.85433C11.625 5.14198 11.8582 5.37516 12.1458 5.37516C12.4335 5.37516 12.6667 5.14198 12.6667 4.85433C12.6667 4.56668 12.4335 4.3335 12.1458 4.3335C11.8582 4.3335 11.625 4.56668 11.625 4.85433Z" stroke="black" stroke-width="1.5" stroke-linecap="round" stroke-linejoin="round"/>
<path d="M15.0418 7.4585C15.0418 7.87271 15.3776 8.2085 15.7918 8.2085C16.206 8.2085 16.5418 7.87271 16.5418 7.4585H15.0418ZM1.2085 11.6252L1.9585 11.6262V11.6252H1.2085ZM1.4339 14.5639C1.68196 14.8956 2.15196 14.9634 2.48369 14.7154C2.81541 14.4673 2.88324 13.9973 2.63518 13.6656L1.4339 14.5639ZM16.5418 7.4585C16.5418 7.04428 16.206 6.7085 15.7918 6.7085C15.3776 6.7085 15.0418 7.04428 15.0418 7.4585H16.5418ZM5.37517 15.7918V15.0418L5.37469 15.0418L5.37517 15.7918ZM2.63628 13.6671C2.38904 13.3347 1.9192 13.2658 1.58687 13.513C1.25454 13.7602 1.18556 14.2301 1.4328 14.5624L2.63628 13.6671ZM16.2956 8.01414C16.6025 7.73593 16.6257 7.26162 16.3475 6.95475C16.0693 6.64788 15.595 6.62464 15.2881 6.90285L16.2956 8.01414ZM10.896 11.897L10.3922 11.3414L10.3872 11.346L10.896 11.897ZM10.1037 12.1699L10.0421 12.9174H10.0421L10.1037 12.1699ZM9.36683 11.771L9.95901 11.3107L9.95868 11.3103L9.36683 11.771ZM7.27412 9.08245L7.86597 8.62178L7.86485 8.62035L7.27412 9.08245ZM6.43219 8.68283L6.41673 7.93299L6.43219 8.68283ZM5.60746 9.11683L4.99818 8.67947L4.99733 8.68066L5.60746 9.11683ZM1.42441 13.6786C1.18352 14.0155 1.26141 14.484 1.59837 14.7249C1.93534 14.9658 2.40378 14.8879 2.64467 14.5509L1.42441 13.6786ZM16.5418 7.4585V5.37516H15.0418V7.4585H16.5418ZM16.5418 5.37516C16.5418 2.65976 14.3406 0.458496 11.6252 0.458496V1.9585C13.5121 1.9585 15.0418 3.48819 15.0418 5.37516H16.5418ZM11.6252 0.458496H5.37517V1.9585H11.6252V0.458496ZM5.37517 0.458496C2.65977 0.458496 0.4585 2.65976 0.4585 5.37516H1.9585C1.9585 3.48819 3.48819 1.9585 5.37517 1.9585V0.458496ZM0.4585 5.37516V11.6252H1.9585V5.37516H0.4585ZM0.458501 11.6242C0.457081 12.6838 0.799334 13.7153 1.4339 14.5639L2.63518 13.6656C2.19495 13.0769 1.95751 12.3613 1.9585 11.6262L0.458501 11.6242ZM15.0418 7.4585V11.6252H16.5418V7.4585H15.0418ZM15.0418 11.6252C15.0418 13.5121 13.5121 15.0418 11.6252 15.0418V16.5418C14.3406 16.5418 16.5418 14.3406 16.5418 11.6252H15.0418ZM11.6252 15.0418H5.37517V16.5418H11.6252V15.0418ZM5.37469 15.0418C4.29582 15.0425 3.28025 14.5327 2.63628 13.6671L1.4328 14.5624C2.36001 15.8087 3.82226 16.5428 5.37564 16.5418L5.37469 15.0418ZM15.2881 6.90285L10.3923 11.3414L11.3997 12.4527L16.2956 8.01414L15.2881 6.90285ZM10.3872 11.346C10.3272 11.4014 10.2467 11.4292 10.1653 11.4224L10.0421 12.9174C10.542 12.9586 11.0363 12.7883 11.4048 12.448L10.3872 11.346ZM10.1653 11.4224C10.084 11.4157 10.0091 11.3752 9.95901 11.3107L8.77466 12.2312C9.08247 12.6273 9.54221 12.8762 10.0421 12.9174L10.1653 11.4224ZM9.95868 11.3103L7.86597 8.62178L6.68228 9.54313L8.77499 12.2317L9.95868 11.3103ZM7.86485 8.62035C7.51727 8.17603 6.98073 7.92135 6.41673 7.93299L6.44766 9.43267C6.53947 9.43077 6.62682 9.47223 6.6834 9.54456L7.86485 8.62035ZM6.41673 7.93299C5.85273 7.94462 5.32715 8.2212 4.99818 8.67947L6.21673 9.55419C6.27029 9.47959 6.35585 9.43456 6.44766 9.43267L6.41673 7.93299ZM4.99733 8.68066L1.42441 13.6786L2.64467 14.5509L6.21759 9.553L4.99733 8.68066Z" fill="black"/>
</svg>
