<svg width="19" height="15" viewBox="0 0 19 15" fill="none" xmlns="http://www.w3.org/2000/svg">
<path d="M18.3214 0H0.678571C0.303237 0 0 0.304688 0 0.681818V14.3182C0 14.6953 0.303237 15 0.678571 15H18.3214C18.6968 15 19 14.6953 19 14.3182V0.681818C19 0.304688 18.6968 0 18.3214 0ZM17.4732 2.3608V13.4659H1.52679V2.3608L0.941518 1.9027L1.77489 0.826705L2.68248 1.53622H16.3196L17.2272 0.826705L18.0606 1.9027L17.4732 2.3608ZM16.3196 1.53409L9.5 6.8608L2.68036 1.53409L1.77277 0.824574L0.939397 1.90057L1.52466 2.35866L8.76841 8.01776C8.97673 8.18037 9.23302 8.26865 9.49682 8.26865C9.76062 8.26865 10.0169 8.18037 10.2252 8.01776L17.4732 2.3608L18.0585 1.9027L17.2251 0.826705L16.3196 1.53409Z" fill="white"/>
</svg>
