<svg width="42" height="42" viewBox="0 0 42 42" fill="none" xmlns="http://www.w3.org/2000/svg">
<circle cx="21" cy="21" r="21" fill="#553D8E"/>
<path d="M14 20.2917C13.4477 20.2917 13 20.7394 13 21.2917C13 21.844 13.4477 22.2917 14 22.2917V20.2917ZM21.2917 22.2917C21.844 22.2917 22.2917 21.844 22.2917 21.2917C22.2917 20.7394 21.844 20.2917 21.2917 20.2917V22.2917ZM21.2917 20.2917C20.7394 20.2917 20.2917 20.7394 20.2917 21.2917C20.2917 21.844 20.7394 22.2917 21.2917 22.2917V20.2917ZM28.5833 22.2917C29.1356 22.2917 29.5833 21.844 29.5833 21.2917C29.5833 20.7394 29.1356 20.2917 28.5833 20.2917V22.2917ZM22.2917 21.2917C22.2917 20.7394 21.844 20.2917 21.2917 20.2917C20.7394 20.2917 20.2917 20.7394 20.2917 21.2917H22.2917ZM20.2917 28.5833C20.2917 29.1356 20.7394 29.5833 21.2917 29.5833C21.844 29.5833 22.2917 29.1356 22.2917 28.5833H20.2917ZM20.2917 21.2917C20.2917 21.844 20.7394 22.2917 21.2917 22.2917C21.844 22.2917 22.2917 21.844 22.2917 21.2917H20.2917ZM22.2917 14C22.2917 13.4477 21.844 13 21.2917 13C20.7394 13 20.2917 13.4477 20.2917 14H22.2917ZM14 22.2917H21.2917V20.2917H14V22.2917ZM21.2917 22.2917H28.5833V20.2917H21.2917V22.2917ZM21.2917 21.2917H20.2917V21.2917C20.2917 21.2917 20.2917 21.2917 20.2917 21.2917C20.2917 21.2917 20.2917 21.2917 20.2917 21.2917C20.2917 21.2917 20.2917 21.2917 20.2917 21.2917C20.2917 21.2917 20.2917 21.2917 20.2917 21.2917C20.2917 21.2917 20.2917 21.2917 20.2917 21.2917C20.2917 21.2917 20.2917 21.2917 20.2917 21.2917C20.2917 21.2917 20.2917 21.2917 20.2917 21.2917C20.2917 21.2917 20.2917 21.2917 20.2917 21.2917C20.2917 21.2917 20.2917 21.2917 20.2917 21.2917C20.2917 21.2917 20.2917 21.2918 20.2917 21.2918C20.2917 21.2918 20.2917 21.2918 20.2917 21.2918C20.2917 21.2918 20.2917 21.2918 20.2917 21.2918C20.2917 21.2918 20.2917 21.2918 20.2917 21.2919C20.2917 21.2919 20.2917 21.2919 20.2917 21.2919C20.2917 21.2919 20.2917 21.2919 20.2917 21.2919C20.2917 21.2919 20.2917 21.292 20.2917 21.292C20.2917 21.292 20.2917 21.292 20.2917 21.292C20.2917 21.2921 20.2917 21.2921 20.2917 21.2921C20.2917 21.2921 20.2917 21.2921 20.2917 21.2922C20.2917 21.2922 20.2917 21.2922 20.2917 21.2922C20.2917 21.2923 20.2917 21.2923 20.2917 21.2923C20.2917 21.2924 20.2917 21.2924 20.2917 21.2924C20.2917 21.2924 20.2917 21.2925 20.2917 21.2925C20.2917 21.2925 20.2917 21.2926 20.2917 21.2926C20.2917 21.2927 20.2917 21.2927 20.2917 21.2927C20.2917 21.2928 20.2917 21.2928 20.2917 21.2929C20.2917 21.2929 20.2917 21.2929 20.2917 21.293C20.2917 21.293 20.2917 21.2931 20.2917 21.2931C20.2917 21.2932 20.2917 21.2932 20.2917 21.2933C20.2917 21.2933 20.2917 21.2934 20.2917 21.2934C20.2917 21.2935 20.2917 21.2936 20.2917 21.2936C20.2917 21.2937 20.2917 21.2937 20.2917 21.2938C20.2917 21.2939 20.2917 21.2939 20.2917 21.294C20.2917 21.2941 20.2917 21.2941 20.2917 21.2942C20.2917 21.2943 20.2917 21.2943 20.2917 21.2944C20.2917 21.2945 20.2917 21.2946 20.2917 21.2946C20.2917 21.2947 20.2917 21.2948 20.2917 21.2949C20.2917 21.295 20.2917 21.2951 20.2917 21.2951C20.2917 21.2952 20.2917 21.2953 20.2917 21.2954C20.2917 21.2955 20.2917 21.2956 20.2917 21.2957C20.2917 21.2958 20.2917 21.2959 20.2917 21.296C20.2917 21.2961 20.2917 21.2962 20.2917 21.2963C20.2917 21.2964 20.2917 21.2965 20.2917 21.2966C20.2917 21.2967 20.2917 21.2968 20.2917 21.297C20.2917 21.2971 20.2917 21.2972 20.2917 21.2973C20.2917 21.2974 20.2917 21.2975 20.2917 21.2977C20.2917 21.2978 20.2917 21.2979 20.2917 21.2981C20.2917 21.2982 20.2917 21.2983 20.2917 21.2985C20.2917 21.2986 20.2917 21.2987 20.2917 21.2989C20.2917 21.299 20.2917 21.2992 20.2917 21.2993C20.2917 21.2995 20.2917 21.2996 20.2917 21.2998C20.2917 21.2999 20.2917 21.3001 20.2917 21.3002C20.2917 21.3004 20.2917 21.3005 20.2917 21.3007C20.2917 21.3009 20.2917 21.301 20.2917 21.3012C20.2917 21.3014 20.2917 21.3016 20.2917 21.3017C20.2917 21.3019 20.2917 21.3021 20.2917 21.3023C20.2917 21.3024 20.2917 21.3026 20.2917 21.3028C20.2917 21.303 20.2917 21.3032 20.2917 21.3034C20.2917 21.3036 20.2917 21.3038 20.2917 21.304C20.2917 21.3042 20.2917 21.3044 20.2917 21.3046C20.2917 21.3048 20.2917 21.305 20.2917 21.3053C20.2917 21.3055 20.2917 21.3057 20.2917 21.3059C20.2917 21.3061 20.2917 21.3064 20.2917 21.3066C20.2917 21.3068 20.2917 21.307 20.2917 21.3073C20.2917 21.3075 20.2917 21.3078 20.2917 21.308C20.2917 21.3082 20.2917 21.3085 20.2917 21.3087C20.2917 21.309 20.2917 21.3093 20.2917 21.3095C20.2917 21.3098 20.2917 21.31 20.2917 21.3103C20.2917 21.3106 20.2917 21.3108 20.2917 21.3111C20.2917 21.3114 20.2917 21.3117 20.2917 21.3119C20.2917 21.3122 20.2917 21.3125 20.2917 21.3128C20.2917 21.3131 20.2917 21.3134 20.2917 21.3137C20.2917 21.314 20.2917 21.3143 20.2917 21.3146C20.2917 21.3149 20.2917 21.3152 20.2917 21.3155C20.2917 21.3158 20.2917 21.3161 20.2917 21.3165C20.2917 21.3168 20.2917 21.3171 20.2917 21.3174C20.2917 21.3178 20.2917 21.3181 20.2917 21.3185C20.2917 21.3188 20.2917 21.3191 20.2917 21.3195C20.2917 21.3198 20.2917 21.3202 20.2917 21.3205C20.2917 21.3209 20.2917 21.3213 20.2917 21.3216C20.2917 21.322 20.2917 21.3224 20.2917 21.3227C20.2917 21.3231 20.2917 21.3235 20.2917 21.3239C20.2917 21.3242 20.2917 21.3246 20.2917 21.325C20.2917 21.3254 20.2917 21.3258 20.2917 21.3262C20.2917 21.3266 20.2917 21.327 20.2917 21.3274C20.2917 21.3279 20.2917 21.3283 20.2917 21.3287C20.2917 21.3291 20.2917 21.3295 20.2917 21.33C20.2917 21.3304 20.2917 21.3308 20.2917 21.3313C20.2917 21.3317 20.2917 21.3322 20.2917 21.3326C20.2917 21.3331 20.2917 21.3335 20.2917 21.334C20.2917 21.3344 20.2917 21.3349 20.2917 21.3354C20.2917 21.3358 20.2917 21.3363 20.2917 21.3368C20.2917 21.3373 20.2917 21.3378 20.2917 21.3382C20.2917 21.3387 20.2917 21.3392 20.2917 21.3397C20.2917 21.3402 20.2917 21.3407 20.2917 21.3412C20.2917 21.3418 20.2917 21.3423 20.2917 21.3428C20.2917 21.3433 20.2917 21.3438 20.2917 21.3444C20.2917 21.3449 20.2917 21.3455 20.2917 21.346C20.2917 21.3465 20.2917 21.3471 20.2917 21.3476C20.2917 21.3482 20.2917 21.3488 20.2917 21.3493C20.2917 21.3499 20.2917 21.3505 20.2917 21.351C20.2917 21.3516 20.2917 21.3522 20.2917 21.3528C20.2917 21.3534 20.2917 21.354 20.2917 21.3546C20.2917 21.3552 20.2917 21.3558 20.2917 21.3564C20.2917 21.357 20.2917 21.3576 20.2917 21.3582C20.2917 21.3588 20.2917 21.3595 20.2917 21.3601C20.2917 21.3607 20.2917 21.3614 20.2917 21.362C20.2917 21.3627 20.2917 21.3633 20.2917 21.364C20.2917 21.3646 20.2917 21.3653 20.2917 21.366C20.2917 21.3666 20.2917 21.3673 20.2917 21.368C20.2917 21.3687 20.2917 21.3694 20.2917 21.3701C20.2917 21.3707 20.2917 21.3714 20.2917 21.3722C20.2917 21.3729 20.2917 21.3736 20.2917 21.3743C20.2917 21.375 20.2917 21.3757 20.2917 21.3765C20.2917 21.3772 20.2917 21.3779 20.2917 21.3787C20.2917 21.3794 20.2917 21.3802 20.2917 21.3809C20.2917 21.3817 20.2917 21.3824 20.2917 21.3832C20.2917 21.384 20.2917 21.3848 20.2917 21.3855C20.2917 21.3863 20.2917 21.3871 20.2917 21.3879C20.2917 21.3887 20.2917 21.3895 20.2917 21.3903C20.2917 21.3911 20.2917 21.3919 20.2917 21.3928C20.2917 21.3936 20.2917 21.3944 20.2917 21.3952C20.2917 21.3961 20.2917 21.3969 20.2917 21.3978C20.2917 21.3986 20.2917 21.3995 20.2917 21.4003C20.2917 21.4012 20.2917 21.4021 20.2917 21.4029C20.2917 21.4038 20.2917 21.4047 20.2917 21.4056C20.2917 21.4065 20.2917 21.4074 20.2917 21.4083C20.2917 21.4092 20.2917 21.4101 20.2917 21.411C20.2917 21.4119 20.2917 21.4129 20.2917 21.4138C20.2917 21.4147 20.2917 21.4157 20.2917 21.4166C20.2917 21.4176 20.2917 21.4185 20.2917 21.4195C20.2917 21.4204 20.2917 21.4214 20.2917 21.4224C20.2917 21.4234 20.2917 21.4243 20.2917 21.4253C20.2917 21.4263 20.2917 21.4273 20.2917 21.4283C20.2917 21.4293 20.2917 21.4303 20.2917 21.4314C20.2917 21.4324 20.2917 21.4334 20.2917 21.4344C20.2917 21.4355 20.2917 21.4365 20.2917 21.4376C20.2917 21.4386 20.2917 21.4397 20.2917 21.4407C20.2917 21.4418 20.2917 21.4429 20.2917 21.444C20.2917 21.445 20.2917 21.4461 20.2917 21.4472C20.2917 21.4483 20.2917 21.4494 20.2917 21.4505C20.2917 21.4516 20.2917 21.4528 20.2917 21.4539C20.2917 21.455 20.2917 21.4561 20.2917 21.4573C20.2917 21.4584 20.2917 21.4596 20.2917 21.4607C20.2917 21.4619 20.2917 21.4631 20.2917 21.4642C20.2917 21.4654 20.2917 21.4666 20.2917 21.4678C20.2917 21.469 20.2917 21.4702 20.2917 21.4714C20.2917 21.4726 20.2917 21.4738 20.2917 21.475C20.2917 21.4762 20.2917 21.4775 20.2917 21.4787C20.2917 21.48 20.2917 21.4812 20.2917 21.4825C20.2917 21.4837 20.2917 21.485 20.2917 21.4862C20.2917 21.4875 20.2917 21.4888 20.2917 21.4901C20.2917 21.4914 20.2917 21.4927 20.2917 21.494C20.2917 21.4953 20.2917 21.4966 20.2917 21.4979C20.2917 21.4992 20.2917 21.5006 20.2917 21.5019C20.2917 21.5032 20.2917 21.5046 20.2917 21.5059C20.2917 21.5073 20.2917 21.5087 20.2917 21.51C20.2917 21.5114 20.2917 21.5128 20.2917 21.5142C20.2917 21.5156 20.2917 21.517 20.2917 21.5184C20.2917 21.5198 20.2917 21.5212 20.2917 21.5226C20.2917 21.5241 20.2917 21.5255 20.2917 21.5269C20.2917 21.5284 20.2917 21.5298 20.2917 21.5313C20.2917 21.5328 20.2917 21.5342 20.2917 21.5357C20.2917 21.5372 20.2917 21.5387 20.2917 21.5402C20.2917 21.5417 20.2917 21.5432 20.2917 21.5447C20.2917 21.5462 20.2917 21.5477 20.2917 21.5493C20.2917 21.5508 20.2917 21.5523 20.2917 21.5539C20.2917 21.5554 20.2917 21.557 20.2917 21.5586C20.2917 21.5601 20.2917 21.5617 20.2917 21.5633C20.2917 21.5649 20.2917 21.5665 20.2917 21.5681C20.2917 21.5697 20.2917 21.5713 20.2917 21.573C20.2917 21.5746 20.2917 21.5762 20.2917 21.5779C20.2917 21.5795 20.2917 21.5812 20.2917 21.5828C20.2917 21.5845 20.2917 21.5862 20.2917 21.5878C20.2917 21.5895 20.2917 21.5912 20.2917 21.5929C20.2917 21.5946 20.2917 21.5963 20.2917 21.5981C20.2917 21.5998 20.2917 21.6015 20.2917 21.6033C20.2917 21.605 20.2917 21.6067 20.2917 21.6085C20.2917 21.6103 20.2917 21.612 20.2917 21.6138C20.2917 21.6156 20.2917 21.6174 20.2917 21.6192C20.2917 21.621 20.2917 21.6228 20.2917 21.6246C20.2917 21.6264 20.2917 21.6283 20.2917 21.6301C20.2917 21.6319 20.2917 21.6338 20.2917 21.6356C20.2917 21.6375 20.2917 21.6394 20.2917 21.6413C20.2917 21.6431 20.2917 21.645 20.2917 21.6469C20.2917 21.6488 20.2917 21.6507 20.2917 21.6527C20.2917 21.6546 20.2917 21.6565 20.2917 21.6584C20.2917 21.6604 20.2917 21.6623 20.2917 21.6643C20.2917 21.6663 20.2917 21.6682 20.2917 21.6702C20.2917 21.6722 20.2917 21.6742 20.2917 21.6762C20.2917 21.6782 20.2917 21.6802 20.2917 21.6822C20.2917 21.6843 20.2917 21.6863 20.2917 21.6883C20.2917 21.6904 20.2917 21.6924 20.2917 21.6945C20.2917 21.6966 20.2917 21.6986 20.2917 21.7007C20.2917 21.7028 20.2917 21.7049 20.2917 21.707C20.2917 21.7091 20.2917 21.7112 20.2917 21.7134C20.2917 21.7155 20.2917 21.7176 20.2917 21.7198C20.2917 21.7219 20.2917 21.7241 20.2917 21.7263C20.2917 21.7285 20.2917 21.7306 20.2917 21.7328C20.2917 21.735 20.2917 21.7372 20.2917 21.7395C20.2917 21.7417 20.2917 21.7439 20.2917 21.7461C20.2917 21.7484 20.2917 21.7506 20.2917 21.7529C20.2917 21.7551 20.2917 21.7574 20.2917 21.7597C20.2917 21.762 20.2917 21.7643 20.2917 21.7666C20.2917 21.7689 20.2917 21.7712 20.2917 21.7735C20.2917 21.7759 20.2917 21.7782 20.2917 21.7806C20.2917 21.7829 20.2917 21.7853 20.2917 21.7876C20.2917 21.79 20.2917 21.7924 20.2917 21.7948C20.2917 21.7972 20.2917 21.7996 20.2917 21.802C20.2917 21.8044 20.2917 21.8069 20.2917 21.8093C20.2917 21.8117 20.2917 21.8142 20.2917 21.8167C20.2917 21.8191 20.2917 21.8216 20.2917 21.8241C20.2917 21.8266 20.2917 21.8291 20.2917 21.8316C20.2917 21.8341 20.2917 21.8366 20.2917 21.8392C20.2917 21.8417 20.2917 21.8442 20.2917 21.8468C20.2917 21.8494 20.2917 21.8519 20.2917 21.8545C20.2917 21.8571 20.2917 21.8597 20.2917 21.8623C20.2917 21.8649 20.2917 21.8675 20.2917 21.8701C20.2917 21.8728 20.2917 21.8754 20.2917 21.8781C20.2917 21.8807 20.2917 21.8834 20.2917 21.8861C20.2917 21.8887 20.2917 21.8914 20.2917 21.8941C20.2917 21.8968 20.2917 21.8995 20.2917 21.9023C20.2917 21.905 20.2917 21.9077 20.2917 21.9105C20.2917 21.9132 20.2917 21.916 20.2917 21.9188C20.2917 21.9215 20.2917 21.9243 20.2917 21.9271C20.2917 21.9299 20.2917 21.9327 20.2917 21.9356C20.2917 21.9384 20.2917 21.9412 20.2917 21.9441C20.2917 21.9469 20.2917 21.9498 20.2917 21.9527C20.2917 21.9555 20.2917 21.9584 20.2917 21.9613C20.2917 21.9642 20.2917 21.9671 20.2917 21.9701C20.2917 21.973 20.2917 21.9759 20.2917 21.9789C20.2917 21.9818 20.2917 21.9848 20.2917 21.9878C20.2917 21.9907 20.2917 21.9937 20.2917 21.9967C20.2917 21.9997 20.2917 22.0027 20.2917 22.0058C20.2917 22.0088 20.2917 22.0118 20.2917 22.0149C20.2917 22.0179 20.2917 22.021 20.2917 22.0241C20.2917 22.0271 20.2917 22.0302 20.2917 22.0333C20.2917 22.0364 20.2917 22.0396 20.2917 22.0427C20.2917 22.0458 20.2917 22.049 20.2917 22.0521C20.2917 22.0553 20.2917 22.0584 20.2917 22.0616C20.2917 22.0648 20.2917 22.068 20.2917 22.0712C20.2917 22.0744 20.2917 22.0776 20.2917 22.0809C20.2917 22.0841 20.2917 22.0873 20.2917 22.0906C20.2917 22.0939 20.2917 22.0971 20.2917 22.1004C20.2917 22.1037 20.2917 22.107 20.2917 22.1103C20.2917 22.1136 20.2917 22.117 20.2917 22.1203C20.2917 22.1237 20.2917 22.127 20.2917 22.1304C20.2917 22.1338 20.2917 22.1371 20.2917 22.1405C20.2917 22.1439 20.2917 22.1473 20.2917 22.1508C20.2917 22.1542 20.2917 22.1576 20.2917 22.1611C20.2917 22.1645 20.2917 22.168 20.2917 22.1715C20.2917 22.1749 20.2917 22.1784 20.2917 22.1819C20.2917 22.1854 20.2917 22.189 20.2917 22.1925C20.2917 22.196 20.2917 22.1996 20.2917 22.2031C20.2917 22.2067 20.2917 22.2103 20.2917 22.2138C20.2917 22.2174 20.2917 22.221 20.2917 22.2247C20.2917 22.2283 20.2917 22.2319 20.2917 22.2355C20.2917 22.2392 20.2917 22.2428 20.2917 22.2465C20.2917 22.2502 20.2917 22.2539 20.2917 22.2576C20.2917 22.2613 20.2917 22.265 20.2917 22.2687C20.2917 22.2725 20.2917 22.2762 20.2917 22.28C20.2917 22.2837 20.2917 22.2875 20.2917 22.2913C20.2917 22.2951 20.2917 22.2989 20.2917 22.3027C20.2917 22.3065 20.2917 22.3103 20.2917 22.3142C20.2917 22.318 20.2917 22.3219 20.2917 22.3257C20.2917 22.3296 20.2917 22.3335 20.2917 22.3374C20.2917 22.3413 20.2917 22.3452 20.2917 22.3492C20.2917 22.3531 20.2917 22.357 20.2917 22.361C20.2917 22.3649 20.2917 22.3689 20.2917 22.3729C20.2917 22.3769 20.2917 22.3809 20.2917 22.3849C20.2917 22.3889 20.2917 22.393 20.2917 22.397C20.2917 22.4011 20.2917 22.4051 20.2917 22.4092C20.2917 22.4133 20.2917 22.4174 20.2917 22.4215C20.2917 22.4256 20.2917 22.4297 20.2917 22.4339C20.2917 22.438 20.2917 22.4422 20.2917 22.4463C20.2917 22.4505 20.2917 22.4547 20.2917 22.4589C20.2917 22.4631 20.2917 22.4673 20.2917 22.4715C20.2917 22.4758 20.2917 22.48 20.2917 22.4843C20.2917 22.4885 20.2917 22.4928 20.2917 22.4971C20.2917 22.5014 20.2917 22.5057 20.2917 22.51C20.2917 22.5143 20.2917 22.5187 20.2917 22.523C20.2917 22.5274 20.2917 22.5317 20.2917 22.5361C20.2917 22.5405 20.2917 22.5449 20.2917 22.5493C20.2917 22.5537 20.2917 22.5581 20.2917 22.5626C20.2917 22.567 20.2917 22.5715 20.2917 22.576C20.2917 22.5804 20.2917 22.5849 20.2917 22.5894C20.2917 22.5939 20.2917 22.5985 20.2917 22.603C20.2917 22.6075 20.2917 22.6121 20.2917 22.6167C20.2917 22.6212 20.2917 22.6258 20.2917 22.6304C20.2917 22.635 20.2917 22.6396 20.2917 22.6443C20.2917 22.6489 20.2917 22.6535 20.2917 22.6582C20.2917 22.6629 20.2917 22.6675 20.2917 22.6722C20.2917 22.6769 20.2917 22.6816 20.2917 22.6864C20.2917 22.6911 20.2917 22.6958 20.2917 22.7006C20.2917 22.7054 20.2917 22.7101 20.2917 22.7149C20.2917 22.7197 20.2917 22.7245 20.2917 22.7294C20.2917 22.7342 20.2917 22.739 20.2917 22.7439C20.2917 22.7487 20.2917 22.7536 20.2917 22.7585C20.2917 22.7634 20.2917 22.7683 20.2917 22.7732C20.2917 22.7781 20.2917 22.7831 20.2917 22.788C20.2917 22.793 20.2917 22.798 20.2917 22.8029C20.2917 22.8079 20.2917 22.8129 20.2917 22.818C20.2917 22.823 20.2917 22.828 20.2917 22.8331C20.2917 22.8381 20.2917 22.8432 20.2917 22.8483C20.2917 22.8534 20.2917 22.8585 20.2917 22.8636C20.2917 22.8687 20.2917 22.8738 20.2917 22.879C20.2917 22.8842 20.2917 22.8893 20.2917 22.8945C20.2917 22.8997 20.2917 22.9049 20.2917 22.9101C20.2917 22.9153 20.2917 22.9206 20.2917 22.9258C20.2917 22.9311 20.2917 22.9364 20.2917 22.9417C20.2917 22.9469 20.2917 22.9522 20.2917 22.9576C20.2917 22.9629 20.2917 22.9682 20.2917 22.9736C20.2917 22.9789 20.2917 22.9843 20.2917 22.9897C20.2917 22.9951 20.2917 23.0005 20.2917 23.0059C20.2917 23.0114 20.2917 23.0168 20.2917 23.0223C20.2917 23.0277 20.2917 23.0332 20.2917 23.0387C20.2917 23.0442 20.2917 23.0497 20.2917 23.0552C20.2917 23.0608 20.2917 23.0663 20.2917 23.0719C20.2917 23.0774 20.2917 23.083 20.2917 23.0886C20.2917 23.0942 20.2917 23.0998 20.2917 23.1054C20.2917 23.1111 20.2917 23.1167 20.2917 23.1224C20.2917 23.1281 20.2917 23.1338 20.2917 23.1395C20.2917 23.1452 20.2917 23.1509 20.2917 23.1566C20.2917 23.1624 20.2917 23.1681 20.2917 23.1739C20.2917 23.1797 20.2917 23.1854 20.2917 23.1913C20.2917 23.1971 20.2917 23.2029 20.2917 23.2087C20.2917 23.2146 20.2917 23.2204 20.2917 23.2263C20.2917 23.2322 20.2917 23.2381 20.2917 23.244C20.2917 23.2499 20.2917 23.2559 20.2917 23.2618C20.2917 23.2678 20.2917 23.2737 20.2917 23.2797C20.2917 23.2857 20.2917 23.2917 20.2917 23.2978C20.2917 23.3038 20.2917 23.3098 20.2917 23.3159C20.2917 23.3219 20.2917 23.328 20.2917 23.3341C20.2917 23.3402 20.2917 23.3463 20.2917 23.3525C20.2917 23.3586 20.2917 23.3647 20.2917 23.3709C20.2917 23.3771 20.2917 23.3833 20.2917 23.3895C20.2917 23.3957 20.2917 23.4019 20.2917 23.4082C20.2917 23.4144 20.2917 23.4207 20.2917 23.4269C20.2917 23.4332 20.2917 23.4395 20.2917 23.4458C20.2917 23.4522 20.2917 23.4585 20.2917 23.4648C20.2917 23.4712 20.2917 23.4776 20.2917 23.484C20.2917 23.4904 20.2917 23.4968 20.2917 23.5032C20.2917 23.5096 20.2917 23.5161 20.2917 23.5225C20.2917 23.529 20.2917 23.5355 20.2917 23.542C20.2917 23.5485 20.2917 23.555 20.2917 23.5616C20.2917 23.5681 20.2917 23.5747 20.2917 23.5812C20.2917 23.5878 20.2917 23.5944 20.2917 23.601C20.2917 23.6077 20.2917 23.6143 20.2917 23.6209C20.2917 23.6276 20.2917 23.6343 20.2917 23.641C20.2917 23.6477 20.2917 23.6544 20.2917 23.6611C20.2917 23.6678 20.2917 23.6746 20.2917 23.6814C20.2917 23.6881 20.2917 23.6949 20.2917 23.7017C20.2917 23.7085 20.2917 23.7154 20.2917 23.7222C20.2917 23.729 20.2917 23.7359 20.2917 23.7428C20.2917 23.7497 20.2917 23.7566 20.2917 23.7635C20.2917 23.7704 20.2917 23.7774 20.2917 23.7843C20.2917 23.7913 20.2917 23.7983 20.2917 23.8053C20.2917 23.8123 20.2917 23.8193 20.2917 23.8264C20.2917 23.8334 20.2917 23.8405 20.2917 23.8475C20.2917 23.8546 20.2917 23.8617 20.2917 23.8688C20.2917 23.876 20.2917 23.8831 20.2917 23.8903C20.2917 23.8974 20.2917 23.9046 20.2917 23.9118C20.2917 23.919 20.2917 23.9262 20.2917 23.9334C20.2917 23.9407 20.2917 23.9479 20.2917 23.9552C20.2917 23.9625 20.2917 23.9698 20.2917 23.9771C20.2917 23.9844 20.2917 23.9918 20.2917 23.9991C20.2917 24.0065 20.2917 24.0139 20.2917 24.0212C20.2917 24.0286 20.2917 24.0361 20.2917 24.0435C20.2917 24.0509 20.2917 24.0584 20.2917 24.0659C20.2917 24.0733 20.2917 24.0808 20.2917 24.0884C20.2917 24.0959 20.2917 24.1034 20.2917 24.111C20.2917 24.1185 20.2917 24.1261 20.2917 24.1337C20.2917 24.1413 20.2917 24.1489 20.2917 24.1566C20.2917 24.1642 20.2917 24.1719 20.2917 24.1796C20.2917 24.1872 20.2917 24.1949 20.2917 24.2027C20.2917 24.2104 20.2917 24.2181 20.2917 24.2259C20.2917 24.2336 20.2917 24.2414 20.2917 24.2492C20.2917 24.257 20.2917 24.2649 20.2917 24.2727C20.2917 24.2806 20.2917 24.2884 20.2917 24.2963C20.2917 24.3042 20.2917 24.3121 20.2917 24.32C20.2917 24.328 20.2917 24.3359 20.2917 24.3439C20.2917 24.3518 20.2917 24.3598 20.2917 24.3678C20.2917 24.3758 20.2917 24.3839 20.2917 24.3919C20.2917 24.4 20.2917 24.4081 20.2917 24.4162C20.2917 24.4242 20.2917 24.4324 20.2917 24.4405C20.2917 24.4486 20.2917 24.4568 20.2917 24.465C20.2917 24.4732 20.2917 24.4814 20.2917 24.4896C20.2917 24.4978 20.2917 24.506 20.2917 24.5143C20.2917 24.5226 20.2917 24.5308 20.2917 24.5392C20.2917 24.5475 20.2917 24.5558 20.2917 24.5641C20.2917 24.5725 20.2917 24.5808 20.2917 24.5892C20.2917 24.5976 20.2917 24.606 20.2917 24.6145C20.2917 24.6229 20.2917 24.6314 20.2917 24.6398C20.2917 24.6483 20.2917 24.6568 20.2917 24.6653C20.2917 24.6739 20.2917 24.6824 20.2917 24.691C20.2917 24.6995 20.2917 24.7081 20.2917 24.7167C20.2917 24.7253 20.2917 24.7339 20.2917 24.7426C20.2917 24.7512 20.2917 24.7599 20.2917 24.7686C20.2917 24.7773 20.2917 24.786 20.2917 24.7947C20.2917 24.8035 20.2917 24.8122 20.2917 24.821C20.2917 24.8298 20.2917 24.8386 20.2917 24.8474C20.2917 24.8562 20.2917 24.8651 20.2917 24.874C20.2917 24.8828 20.2917 24.8917 20.2917 24.9006C20.2917 24.9095 20.2917 24.9185 20.2917 24.9274C20.2917 24.9364 20.2917 24.9454 20.2917 24.9544C20.2917 24.9634 20.2917 24.9724 20.2917 24.9814C20.2917 24.9905 20.2917 24.9995 20.2917 25.0086C20.2917 25.0177 20.2917 25.0268 20.2917 25.0359C20.2917 25.0451 20.2917 25.0542 20.2917 25.0634C20.2917 25.0726 20.2917 25.0818 20.2917 25.091C20.2917 25.1002 20.2917 25.1095 20.2917 25.1187C20.2917 25.128 20.2917 25.1373 20.2917 25.1466C20.2917 25.1559 20.2917 25.1653 20.2917 25.1746C20.2917 25.184 20.2917 25.1933 20.2917 25.2027C20.2917 25.2121 20.2917 25.2216 20.2917 25.231C20.2917 25.2405 20.2917 25.2499 20.2917 25.2594C20.2917 25.2689 20.2917 25.2784 20.2917 25.288C20.2917 25.2975 20.2917 25.3071 20.2917 25.3167C20.2917 25.3262 20.2917 25.3358 20.2917 25.3455C20.2917 25.3551 20.2917 25.3648 20.2917 25.3744C20.2917 25.3841 20.2917 25.3938 20.2917 25.4035C20.2917 25.4132 20.2917 25.423 20.2917 25.4328C20.2917 25.4425 20.2917 25.4523 20.2917 25.4621C20.2917 25.4719 20.2917 25.4818 20.2917 25.4916C20.2917 25.5015 20.2917 25.5114 20.2917 25.5213C20.2917 25.5312 20.2917 25.5411 20.2917 25.5511C20.2917 25.561 20.2917 25.571 20.2917 25.581C20.2917 25.591 20.2917 25.601 20.2917 25.6111C20.2917 25.6211 20.2917 25.6312 20.2917 25.6413C20.2917 25.6514 20.2917 25.6615 20.2917 25.6716C20.2917 25.6817 20.2917 25.6919 20.2917 25.7021C20.2917 25.7123 20.2917 25.7225 20.2917 25.7327C20.2917 25.743 20.2917 25.7532 20.2917 25.7635C20.2917 25.7738 20.2917 25.7841 20.2917 25.7944C20.2917 25.8047 20.2917 25.8151 20.2917 25.8255C20.2917 25.8358 20.2917 25.8462 20.2917 25.8567C20.2917 25.8671 20.2917 25.8775 20.2917 25.888C20.2917 25.8985 20.2917 25.909 20.2917 25.9195C20.2917 25.93 20.2917 25.9405 20.2917 25.9511C20.2917 25.9617 20.2917 25.9722 20.2917 25.9829C20.2917 25.9935 20.2917 26.0041 20.2917 26.0148C20.2917 26.0254 20.2917 26.0361 20.2917 26.0468C20.2917 26.0575 20.2917 26.0683 20.2917 26.079C20.2917 26.0898 20.2917 26.1006 20.2917 26.1114C20.2917 26.1222 20.2917 26.133 20.2917 26.1439C20.2917 26.1547 20.2917 26.1656 20.2917 26.1765C20.2917 26.1874 20.2917 26.1983 20.2917 26.2093C20.2917 26.2203 20.2917 26.2312 20.2917 26.2422C20.2917 26.2532 20.2917 26.2643 20.2917 26.2753C20.2917 26.2864 20.2917 26.2974 20.2917 26.3085C20.2917 26.3196 20.2917 26.3308 20.2917 26.3419C20.2917 26.353 20.2917 26.3642 20.2917 26.3754C20.2917 26.3866 20.2917 26.3978 20.2917 26.4091C20.2917 26.4203 20.2917 26.4316 20.2917 26.4429C20.2917 26.4542 20.2917 26.4655 20.2917 26.4769C20.2917 26.4882 20.2917 26.4996 20.2917 26.511C20.2917 26.5224 20.2917 26.5338 20.2917 26.5452C20.2917 26.5567 20.2917 26.5682 20.2917 26.5797C20.2917 26.5911 20.2917 26.6027 20.2917 26.6142C20.2917 26.6258 20.2917 26.6373 20.2917 26.6489C20.2917 26.6605 20.2917 26.6721 20.2917 26.6838C20.2917 26.6954 20.2917 26.7071 20.2917 26.7188C20.2917 26.7305 20.2917 26.7422 20.2917 26.754C20.2917 26.7657 20.2917 26.7775 20.2917 26.7893C20.2917 26.8011 20.2917 26.8129 20.2917 26.8248C20.2917 26.8366 20.2917 26.8485 20.2917 26.8604C20.2917 26.8723 20.2917 26.8842 20.2917 26.8961C20.2917 26.9081 20.2917 26.9201 20.2917 26.9321C20.2917 26.9441 20.2917 26.9561 20.2917 26.9682C20.2917 26.9802 20.2917 26.9923 20.2917 27.0044C20.2917 27.0165 20.2917 27.0286 20.2917 27.0408C20.2917 27.0529 20.2917 27.0651 20.2917 27.0773C20.2917 27.0895 20.2917 27.1018 20.2917 27.114C20.2917 27.1263 20.2917 27.1385 20.2917 27.1509C20.2917 27.1632 20.2917 27.1755 20.2917 27.1879C20.2917 27.2002 20.2917 27.2126 20.2917 27.225C20.2917 27.2374 20.2917 27.2499 20.2917 27.2623C20.2917 27.2748 20.2917 27.2873 20.2917 27.2998C20.2917 27.3123 20.2917 27.3249 20.2917 27.3374C20.2917 27.35 20.2917 27.3626 20.2917 27.3752C20.2917 27.3879 20.2917 27.4005 20.2917 27.4132C20.2917 27.4258 20.2917 27.4385 20.2917 27.4513C20.2917 27.464 20.2917 27.4768 20.2917 27.4895C20.2917 27.5023 20.2917 27.5151 20.2917 27.5279C20.2917 27.5408 20.2917 27.5536 20.2917 27.5665C20.2917 27.5794 20.2917 27.5923 20.2917 27.6053C20.2917 27.6182 20.2917 27.6312 20.2917 27.6441C20.2917 27.6571 20.2917 27.6702 20.2917 27.6832C20.2917 27.6962 20.2917 27.7093 20.2917 27.7224C20.2917 27.7355 20.2917 27.7486 20.2917 27.7618C20.2917 27.7749 20.2917 27.7881 20.2917 27.8013C20.2917 27.8145 20.2917 27.8278 20.2917 27.841C20.2917 27.8543 20.2917 27.8676 20.2917 27.8809C20.2917 27.8942 20.2917 27.9075 20.2917 27.9209C20.2917 27.9342 20.2917 27.9476 20.2917 27.9611C20.2917 27.9745 20.2917 27.9879 20.2917 28.0014C20.2917 28.0149 20.2917 28.0284 20.2917 28.0419C20.2917 28.0554 20.2917 28.069 20.2917 28.0826C20.2917 28.0961 20.2917 28.1098 20.2917 28.1234C20.2917 28.137 20.2917 28.1507 20.2917 28.1644C20.2917 28.1781 20.2917 28.1918 20.2917 28.2055C20.2917 28.2193 20.2917 28.233 20.2917 28.2468C20.2917 28.2606 20.2917 28.2745 20.2917 28.2883C20.2917 28.3022 20.2917 28.3161 20.2917 28.33C20.2917 28.3439 20.2917 28.3578 20.2917 28.3718C20.2917 28.3858 20.2917 28.3997 20.2917 28.4138C20.2917 28.4278 20.2917 28.4418 20.2917 28.4559C20.2917 28.47 20.2917 28.4841 20.2917 28.4982C20.2917 28.5123 20.2917 28.5265 20.2917 28.5407C20.2917 28.5549 20.2917 28.5691 20.2917 28.5833H22.2917C22.2917 28.5691 22.2917 28.5549 22.2917 28.5407C22.2917 28.5265 22.2917 28.5123 22.2917 28.4982C22.2917 28.4841 22.2917 28.47 22.2917 28.4559C22.2917 28.4418 22.2917 28.4278 22.2917 28.4138C22.2917 28.3997 22.2917 28.3858 22.2917 28.3718C22.2917 28.3578 22.2917 28.3439 22.2917 28.33C22.2917 28.3161 22.2917 28.3022 22.2917 28.2883C22.2917 28.2745 22.2917 28.2606 22.2917 28.2468C22.2917 28.233 22.2917 28.2193 22.2917 28.2055C22.2917 28.1918 22.2917 28.1781 22.2917 28.1644C22.2917 28.1507 22.2917 28.137 22.2917 28.1234C22.2917 28.1098 22.2917 28.0961 22.2917 28.0826C22.2917 28.069 22.2917 28.0554 22.2917 28.0419C22.2917 28.0284 22.2917 28.0149 22.2917 28.0014C22.2917 27.9879 22.2917 27.9745 22.2917 27.9611C22.2917 27.9476 22.2917 27.9342 22.2917 27.9209C22.2917 27.9075 22.2917 27.8942 22.2917 27.8809C22.2917 27.8676 22.2917 27.8543 22.2917 27.841C22.2917 27.8278 22.2917 27.8145 22.2917 27.8013C22.2917 27.7881 22.2917 27.7749 22.2917 27.7618C22.2917 27.7486 22.2917 27.7355 22.2917 27.7224C22.2917 27.7093 22.2917 27.6962 22.2917 27.6832C22.2917 27.6702 22.2917 27.6571 22.2917 27.6441C22.2917 27.6312 22.2917 27.6182 22.2917 27.6053C22.2917 27.5923 22.2917 27.5794 22.2917 27.5665C22.2917 27.5536 22.2917 27.5408 22.2917 27.5279C22.2917 27.5151 22.2917 27.5023 22.2917 27.4895C22.2917 27.4768 22.2917 27.464 22.2917 27.4513C22.2917 27.4385 22.2917 27.4258 22.2917 27.4132C22.2917 27.4005 22.2917 27.3879 22.2917 27.3752C22.2917 27.3626 22.2917 27.35 22.2917 27.3374C22.2917 27.3249 22.2917 27.3123 22.2917 27.2998C22.2917 27.2873 22.2917 27.2748 22.2917 27.2623C22.2917 27.2499 22.2917 27.2374 22.2917 27.225C22.2917 27.2126 22.2917 27.2002 22.2917 27.1879C22.2917 27.1755 22.2917 27.1632 22.2917 27.1509C22.2917 27.1385 22.2917 27.1263 22.2917 27.114C22.2917 27.1018 22.2917 27.0895 22.2917 27.0773C22.2917 27.0651 22.2917 27.0529 22.2917 27.0408C22.2917 27.0286 22.2917 27.0165 22.2917 27.0044C22.2917 26.9923 22.2917 26.9802 22.2917 26.9682C22.2917 26.9561 22.2917 26.9441 22.2917 26.9321C22.2917 26.9201 22.2917 26.9081 22.2917 26.8961C22.2917 26.8842 22.2917 26.8723 22.2917 26.8604C22.2917 26.8485 22.2917 26.8366 22.2917 26.8248C22.2917 26.8129 22.2917 26.8011 22.2917 26.7893C22.2917 26.7775 22.2917 26.7657 22.2917 26.754C22.2917 26.7422 22.2917 26.7305 22.2917 26.7188C22.2917 26.7071 22.2917 26.6954 22.2917 26.6838C22.2917 26.6721 22.2917 26.6605 22.2917 26.6489C22.2917 26.6373 22.2917 26.6258 22.2917 26.6142C22.2917 26.6027 22.2917 26.5911 22.2917 26.5797C22.2917 26.5682 22.2917 26.5567 22.2917 26.5452C22.2917 26.5338 22.2917 26.5224 22.2917 26.511C22.2917 26.4996 22.2917 26.4882 22.2917 26.4769C22.2917 26.4655 22.2917 26.4542 22.2917 26.4429C22.2917 26.4316 22.2917 26.4203 22.2917 26.4091C22.2917 26.3978 22.2917 26.3866 22.2917 26.3754C22.2917 26.3642 22.2917 26.353 22.2917 26.3419C22.2917 26.3308 22.2917 26.3196 22.2917 26.3085C22.2917 26.2974 22.2917 26.2864 22.2917 26.2753C22.2917 26.2643 22.2917 26.2532 22.2917 26.2422C22.2917 26.2312 22.2917 26.2203 22.2917 26.2093C22.2917 26.1983 22.2917 26.1874 22.2917 26.1765C22.2917 26.1656 22.2917 26.1547 22.2917 26.1439C22.2917 26.133 22.2917 26.1222 22.2917 26.1114C22.2917 26.1006 22.2917 26.0898 22.2917 26.079C22.2917 26.0683 22.2917 26.0575 22.2917 26.0468C22.2917 26.0361 22.2917 26.0254 22.2917 26.0148C22.2917 26.0041 22.2917 25.9935 22.2917 25.9829C22.2917 25.9722 22.2917 25.9617 22.2917 25.9511C22.2917 25.9405 22.2917 25.93 22.2917 25.9195C22.2917 25.909 22.2917 25.8985 22.2917 25.888C22.2917 25.8775 22.2917 25.8671 22.2917 25.8567C22.2917 25.8462 22.2917 25.8358 22.2917 25.8255C22.2917 25.8151 22.2917 25.8047 22.2917 25.7944C22.2917 25.7841 22.2917 25.7738 22.2917 25.7635C22.2917 25.7532 22.2917 25.743 22.2917 25.7327C22.2917 25.7225 22.2917 25.7123 22.2917 25.7021C22.2917 25.6919 22.2917 25.6817 22.2917 25.6716C22.2917 25.6615 22.2917 25.6514 22.2917 25.6413C22.2917 25.6312 22.2917 25.6211 22.2917 25.6111C22.2917 25.601 22.2917 25.591 22.2917 25.581C22.2917 25.571 22.2917 25.561 22.2917 25.5511C22.2917 25.5411 22.2917 25.5312 22.2917 25.5213C22.2917 25.5114 22.2917 25.5015 22.2917 25.4916C22.2917 25.4818 22.2917 25.4719 22.2917 25.4621C22.2917 25.4523 22.2917 25.4425 22.2917 25.4328C22.2917 25.423 22.2917 25.4132 22.2917 25.4035C22.2917 25.3938 22.2917 25.3841 22.2917 25.3744C22.2917 25.3648 22.2917 25.3551 22.2917 25.3455C22.2917 25.3358 22.2917 25.3262 22.2917 25.3167C22.2917 25.3071 22.2917 25.2975 22.2917 25.288C22.2917 25.2784 22.2917 25.2689 22.2917 25.2594C22.2917 25.2499 22.2917 25.2405 22.2917 25.231C22.2917 25.2216 22.2917 25.2121 22.2917 25.2027C22.2917 25.1933 22.2917 25.184 22.2917 25.1746C22.2917 25.1653 22.2917 25.1559 22.2917 25.1466C22.2917 25.1373 22.2917 25.128 22.2917 25.1187C22.2917 25.1095 22.2917 25.1002 22.2917 25.091C22.2917 25.0818 22.2917 25.0726 22.2917 25.0634C22.2917 25.0542 22.2917 25.0451 22.2917 25.0359C22.2917 25.0268 22.2917 25.0177 22.2917 25.0086C22.2917 24.9995 22.2917 24.9905 22.2917 24.9814C22.2917 24.9724 22.2917 24.9634 22.2917 24.9544C22.2917 24.9454 22.2917 24.9364 22.2917 24.9274C22.2917 24.9185 22.2917 24.9095 22.2917 24.9006C22.2917 24.8917 22.2917 24.8828 22.2917 24.874C22.2917 24.8651 22.2917 24.8562 22.2917 24.8474C22.2917 24.8386 22.2917 24.8298 22.2917 24.821C22.2917 24.8122 22.2917 24.8035 22.2917 24.7947C22.2917 24.786 22.2917 24.7773 22.2917 24.7686C22.2917 24.7599 22.2917 24.7512 22.2917 24.7426C22.2917 24.7339 22.2917 24.7253 22.2917 24.7167C22.2917 24.7081 22.2917 24.6995 22.2917 24.691C22.2917 24.6824 22.2917 24.6739 22.2917 24.6653C22.2917 24.6568 22.2917 24.6483 22.2917 24.6398C22.2917 24.6314 22.2917 24.6229 22.2917 24.6145C22.2917 24.606 22.2917 24.5976 22.2917 24.5892C22.2917 24.5808 22.2917 24.5725 22.2917 24.5641C22.2917 24.5558 22.2917 24.5475 22.2917 24.5392C22.2917 24.5308 22.2917 24.5226 22.2917 24.5143C22.2917 24.506 22.2917 24.4978 22.2917 24.4896C22.2917 24.4814 22.2917 24.4732 22.2917 24.465C22.2917 24.4568 22.2917 24.4486 22.2917 24.4405C22.2917 24.4324 22.2917 24.4242 22.2917 24.4162C22.2917 24.4081 22.2917 24.4 22.2917 24.3919C22.2917 24.3839 22.2917 24.3758 22.2917 24.3678C22.2917 24.3598 22.2917 24.3518 22.2917 24.3439C22.2917 24.3359 22.2917 24.328 22.2917 24.32C22.2917 24.3121 22.2917 24.3042 22.2917 24.2963C22.2917 24.2884 22.2917 24.2806 22.2917 24.2727C22.2917 24.2649 22.2917 24.257 22.2917 24.2492C22.2917 24.2414 22.2917 24.2336 22.2917 24.2259C22.2917 24.2181 22.2917 24.2104 22.2917 24.2027C22.2917 24.1949 22.2917 24.1872 22.2917 24.1796C22.2917 24.1719 22.2917 24.1642 22.2917 24.1566C22.2917 24.1489 22.2917 24.1413 22.2917 24.1337C22.2917 24.1261 22.2917 24.1185 22.2917 24.111C22.2917 24.1034 22.2917 24.0959 22.2917 24.0884C22.2917 24.0808 22.2917 24.0733 22.2917 24.0659C22.2917 24.0584 22.2917 24.0509 22.2917 24.0435C22.2917 24.0361 22.2917 24.0286 22.2917 24.0212C22.2917 24.0139 22.2917 24.0065 22.2917 23.9991C22.2917 23.9918 22.2917 23.9844 22.2917 23.9771C22.2917 23.9698 22.2917 23.9625 22.2917 23.9552C22.2917 23.9479 22.2917 23.9407 22.2917 23.9334C22.2917 23.9262 22.2917 23.919 22.2917 23.9118C22.2917 23.9046 22.2917 23.8974 22.2917 23.8903C22.2917 23.8831 22.2917 23.876 22.2917 23.8688C22.2917 23.8617 22.2917 23.8546 22.2917 23.8475C22.2917 23.8405 22.2917 23.8334 22.2917 23.8264C22.2917 23.8193 22.2917 23.8123 22.2917 23.8053C22.2917 23.7983 22.2917 23.7913 22.2917 23.7843C22.2917 23.7774 22.2917 23.7704 22.2917 23.7635C22.2917 23.7566 22.2917 23.7497 22.2917 23.7428C22.2917 23.7359 22.2917 23.729 22.2917 23.7222C22.2917 23.7154 22.2917 23.7085 22.2917 23.7017C22.2917 23.6949 22.2917 23.6881 22.2917 23.6814C22.2917 23.6746 22.2917 23.6678 22.2917 23.6611C22.2917 23.6544 22.2917 23.6477 22.2917 23.641C22.2917 23.6343 22.2917 23.6276 22.2917 23.6209C22.2917 23.6143 22.2917 23.6077 22.2917 23.601C22.2917 23.5944 22.2917 23.5878 22.2917 23.5812C22.2917 23.5747 22.2917 23.5681 22.2917 23.5616C22.2917 23.555 22.2917 23.5485 22.2917 23.542C22.2917 23.5355 22.2917 23.529 22.2917 23.5225C22.2917 23.5161 22.2917 23.5096 22.2917 23.5032C22.2917 23.4968 22.2917 23.4904 22.2917 23.484C22.2917 23.4776 22.2917 23.4712 22.2917 23.4648C22.2917 23.4585 22.2917 23.4522 22.2917 23.4458C22.2917 23.4395 22.2917 23.4332 22.2917 23.4269C22.2917 23.4207 22.2917 23.4144 22.2917 23.4082C22.2917 23.4019 22.2917 23.3957 22.2917 23.3895C22.2917 23.3833 22.2917 23.3771 22.2917 23.3709C22.2917 23.3647 22.2917 23.3586 22.2917 23.3525C22.2917 23.3463 22.2917 23.3402 22.2917 23.3341C22.2917 23.328 22.2917 23.3219 22.2917 23.3159C22.2917 23.3098 22.2917 23.3038 22.2917 23.2978C22.2917 23.2917 22.2917 23.2857 22.2917 23.2797C22.2917 23.2737 22.2917 23.2678 22.2917 23.2618C22.2917 23.2559 22.2917 23.2499 22.2917 23.244C22.2917 23.2381 22.2917 23.2322 22.2917 23.2263C22.2917 23.2204 22.2917 23.2146 22.2917 23.2087C22.2917 23.2029 22.2917 23.1971 22.2917 23.1913C22.2917 23.1854 22.2917 23.1797 22.2917 23.1739C22.2917 23.1681 22.2917 23.1624 22.2917 23.1566C22.2917 23.1509 22.2917 23.1452 22.2917 23.1395C22.2917 23.1338 22.2917 23.1281 22.2917 23.1224C22.2917 23.1167 22.2917 23.1111 22.2917 23.1054C22.2917 23.0998 22.2917 23.0942 22.2917 23.0886C22.2917 23.083 22.2917 23.0774 22.2917 23.0719C22.2917 23.0663 22.2917 23.0608 22.2917 23.0552C22.2917 23.0497 22.2917 23.0442 22.2917 23.0387C22.2917 23.0332 22.2917 23.0277 22.2917 23.0223C22.2917 23.0168 22.2917 23.0114 22.2917 23.0059C22.2917 23.0005 22.2917 22.9951 22.2917 22.9897C22.2917 22.9843 22.2917 22.9789 22.2917 22.9736C22.2917 22.9682 22.2917 22.9629 22.2917 22.9576C22.2917 22.9522 22.2917 22.9469 22.2917 22.9417C22.2917 22.9364 22.2917 22.9311 22.2917 22.9258C22.2917 22.9206 22.2917 22.9153 22.2917 22.9101C22.2917 22.9049 22.2917 22.8997 22.2917 22.8945C22.2917 22.8893 22.2917 22.8842 22.2917 22.879C22.2917 22.8738 22.2917 22.8687 22.2917 22.8636C22.2917 22.8585 22.2917 22.8534 22.2917 22.8483C22.2917 22.8432 22.2917 22.8381 22.2917 22.8331C22.2917 22.828 22.2917 22.823 22.2917 22.818C22.2917 22.8129 22.2917 22.8079 22.2917 22.8029C22.2917 22.798 22.2917 22.793 22.2917 22.788C22.2917 22.7831 22.2917 22.7781 22.2917 22.7732C22.2917 22.7683 22.2917 22.7634 22.2917 22.7585C22.2917 22.7536 22.2917 22.7487 22.2917 22.7439C22.2917 22.739 22.2917 22.7342 22.2917 22.7294C22.2917 22.7245 22.2917 22.7197 22.2917 22.7149C22.2917 22.7101 22.2917 22.7054 22.2917 22.7006C22.2917 22.6958 22.2917 22.6911 22.2917 22.6864C22.2917 22.6816 22.2917 22.6769 22.2917 22.6722C22.2917 22.6675 22.2917 22.6629 22.2917 22.6582C22.2917 22.6535 22.2917 22.6489 22.2917 22.6443C22.2917 22.6396 22.2917 22.635 22.2917 22.6304C22.2917 22.6258 22.2917 22.6212 22.2917 22.6167C22.2917 22.6121 22.2917 22.6075 22.2917 22.603C22.2917 22.5985 22.2917 22.5939 22.2917 22.5894C22.2917 22.5849 22.2917 22.5804 22.2917 22.576C22.2917 22.5715 22.2917 22.567 22.2917 22.5626C22.2917 22.5581 22.2917 22.5537 22.2917 22.5493C22.2917 22.5449 22.2917 22.5405 22.2917 22.5361C22.2917 22.5317 22.2917 22.5274 22.2917 22.523C22.2917 22.5187 22.2917 22.5143 22.2917 22.51C22.2917 22.5057 22.2917 22.5014 22.2917 22.4971C22.2917 22.4928 22.2917 22.4885 22.2917 22.4843C22.2917 22.48 22.2917 22.4758 22.2917 22.4715C22.2917 22.4673 22.2917 22.4631 22.2917 22.4589C22.2917 22.4547 22.2917 22.4505 22.2917 22.4463C22.2917 22.4422 22.2917 22.438 22.2917 22.4339C22.2917 22.4297 22.2917 22.4256 22.2917 22.4215C22.2917 22.4174 22.2917 22.4133 22.2917 22.4092C22.2917 22.4051 22.2917 22.4011 22.2917 22.397C22.2917 22.393 22.2917 22.3889 22.2917 22.3849C22.2917 22.3809 22.2917 22.3769 22.2917 22.3729C22.2917 22.3689 22.2917 22.3649 22.2917 22.361C22.2917 22.357 22.2917 22.3531 22.2917 22.3492C22.2917 22.3452 22.2917 22.3413 22.2917 22.3374C22.2917 22.3335 22.2917 22.3296 22.2917 22.3257C22.2917 22.3219 22.2917 22.318 22.2917 22.3142C22.2917 22.3103 22.2917 22.3065 22.2917 22.3027C22.2917 22.2989 22.2917 22.2951 22.2917 22.2913C22.2917 22.2875 22.2917 22.2837 22.2917 22.28C22.2917 22.2762 22.2917 22.2725 22.2917 22.2687C22.2917 22.265 22.2917 22.2613 22.2917 22.2576C22.2917 22.2539 22.2917 22.2502 22.2917 22.2465C22.2917 22.2428 22.2917 22.2392 22.2917 22.2355C22.2917 22.2319 22.2917 22.2283 22.2917 22.2247C22.2917 22.221 22.2917 22.2174 22.2917 22.2138C22.2917 22.2103 22.2917 22.2067 22.2917 22.2031C22.2917 22.1996 22.2917 22.196 22.2917 22.1925C22.2917 22.189 22.2917 22.1854 22.2917 22.1819C22.2917 22.1784 22.2917 22.1749 22.2917 22.1715C22.2917 22.168 22.2917 22.1645 22.2917 22.1611C22.2917 22.1576 22.2917 22.1542 22.2917 22.1508C22.2917 22.1473 22.2917 22.1439 22.2917 22.1405C22.2917 22.1371 22.2917 22.1338 22.2917 22.1304C22.2917 22.127 22.2917 22.1237 22.2917 22.1203C22.2917 22.117 22.2917 22.1136 22.2917 22.1103C22.2917 22.107 22.2917 22.1037 22.2917 22.1004C22.2917 22.0971 22.2917 22.0939 22.2917 22.0906C22.2917 22.0873 22.2917 22.0841 22.2917 22.0809C22.2917 22.0776 22.2917 22.0744 22.2917 22.0712C22.2917 22.068 22.2917 22.0648 22.2917 22.0616C22.2917 22.0584 22.2917 22.0553 22.2917 22.0521C22.2917 22.049 22.2917 22.0458 22.2917 22.0427C22.2917 22.0396 22.2917 22.0364 22.2917 22.0333C22.2917 22.0302 22.2917 22.0271 22.2917 22.0241C22.2917 22.021 22.2917 22.0179 22.2917 22.0149C22.2917 22.0118 22.2917 22.0088 22.2917 22.0058C22.2917 22.0027 22.2917 21.9997 22.2917 21.9967C22.2917 21.9937 22.2917 21.9907 22.2917 21.9878C22.2917 21.9848 22.2917 21.9818 22.2917 21.9789C22.2917 21.9759 22.2917 21.973 22.2917 21.9701C22.2917 21.9671 22.2917 21.9642 22.2917 21.9613C22.2917 21.9584 22.2917 21.9555 22.2917 21.9527C22.2917 21.9498 22.2917 21.9469 22.2917 21.9441C22.2917 21.9412 22.2917 21.9384 22.2917 21.9356C22.2917 21.9327 22.2917 21.9299 22.2917 21.9271C22.2917 21.9243 22.2917 21.9215 22.2917 21.9188C22.2917 21.916 22.2917 21.9132 22.2917 21.9105C22.2917 21.9077 22.2917 21.905 22.2917 21.9023C22.2917 21.8995 22.2917 21.8968 22.2917 21.8941C22.2917 21.8914 22.2917 21.8887 22.2917 21.8861C22.2917 21.8834 22.2917 21.8807 22.2917 21.8781C22.2917 21.8754 22.2917 21.8728 22.2917 21.8701C22.2917 21.8675 22.2917 21.8649 22.2917 21.8623C22.2917 21.8597 22.2917 21.8571 22.2917 21.8545C22.2917 21.8519 22.2917 21.8494 22.2917 21.8468C22.2917 21.8442 22.2917 21.8417 22.2917 21.8392C22.2917 21.8366 22.2917 21.8341 22.2917 21.8316C22.2917 21.8291 22.2917 21.8266 22.2917 21.8241C22.2917 21.8216 22.2917 21.8191 22.2917 21.8167C22.2917 21.8142 22.2917 21.8117 22.2917 21.8093C22.2917 21.8069 22.2917 21.8044 22.2917 21.802C22.2917 21.7996 22.2917 21.7972 22.2917 21.7948C22.2917 21.7924 22.2917 21.79 22.2917 21.7876C22.2917 21.7853 22.2917 21.7829 22.2917 21.7806C22.2917 21.7782 22.2917 21.7759 22.2917 21.7735C22.2917 21.7712 22.2917 21.7689 22.2917 21.7666C22.2917 21.7643 22.2917 21.762 22.2917 21.7597C22.2917 21.7574 22.2917 21.7551 22.2917 21.7529C22.2917 21.7506 22.2917 21.7484 22.2917 21.7461C22.2917 21.7439 22.2917 21.7417 22.2917 21.7395C22.2917 21.7372 22.2917 21.735 22.2917 21.7328C22.2917 21.7306 22.2917 21.7285 22.2917 21.7263C22.2917 21.7241 22.2917 21.7219 22.2917 21.7198C22.2917 21.7176 22.2917 21.7155 22.2917 21.7134C22.2917 21.7112 22.2917 21.7091 22.2917 21.707C22.2917 21.7049 22.2917 21.7028 22.2917 21.7007C22.2917 21.6986 22.2917 21.6966 22.2917 21.6945C22.2917 21.6924 22.2917 21.6904 22.2917 21.6883C22.2917 21.6863 22.2917 21.6843 22.2917 21.6822C22.2917 21.6802 22.2917 21.6782 22.2917 21.6762C22.2917 21.6742 22.2917 21.6722 22.2917 21.6702C22.2917 21.6682 22.2917 21.6663 22.2917 21.6643C22.2917 21.6623 22.2917 21.6604 22.2917 21.6584C22.2917 21.6565 22.2917 21.6546 22.2917 21.6527C22.2917 21.6507 22.2917 21.6488 22.2917 21.6469C22.2917 21.645 22.2917 21.6431 22.2917 21.6413C22.2917 21.6394 22.2917 21.6375 22.2917 21.6356C22.2917 21.6338 22.2917 21.6319 22.2917 21.6301C22.2917 21.6283 22.2917 21.6264 22.2917 21.6246C22.2917 21.6228 22.2917 21.621 22.2917 21.6192C22.2917 21.6174 22.2917 21.6156 22.2917 21.6138C22.2917 21.612 22.2917 21.6103 22.2917 21.6085C22.2917 21.6067 22.2917 21.605 22.2917 21.6033C22.2917 21.6015 22.2917 21.5998 22.2917 21.5981C22.2917 21.5963 22.2917 21.5946 22.2917 21.5929C22.2917 21.5912 22.2917 21.5895 22.2917 21.5878C22.2917 21.5862 22.2917 21.5845 22.2917 21.5828C22.2917 21.5812 22.2917 21.5795 22.2917 21.5779C22.2917 21.5762 22.2917 21.5746 22.2917 21.573C22.2917 21.5713 22.2917 21.5697 22.2917 21.5681C22.2917 21.5665 22.2917 21.5649 22.2917 21.5633C22.2917 21.5617 22.2917 21.5601 22.2917 21.5586C22.2917 21.557 22.2917 21.5554 22.2917 21.5539C22.2917 21.5523 22.2917 21.5508 22.2917 21.5493C22.2917 21.5477 22.2917 21.5462 22.2917 21.5447C22.2917 21.5432 22.2917 21.5417 22.2917 21.5402C22.2917 21.5387 22.2917 21.5372 22.2917 21.5357C22.2917 21.5342 22.2917 21.5328 22.2917 21.5313C22.2917 21.5298 22.2917 21.5284 22.2917 21.5269C22.2917 21.5255 22.2917 21.5241 22.2917 21.5226C22.2917 21.5212 22.2917 21.5198 22.2917 21.5184C22.2917 21.517 22.2917 21.5156 22.2917 21.5142C22.2917 21.5128 22.2917 21.5114 22.2917 21.51C22.2917 21.5087 22.2917 21.5073 22.2917 21.5059C22.2917 21.5046 22.2917 21.5032 22.2917 21.5019C22.2917 21.5006 22.2917 21.4992 22.2917 21.4979C22.2917 21.4966 22.2917 21.4953 22.2917 21.494C22.2917 21.4927 22.2917 21.4914 22.2917 21.4901C22.2917 21.4888 22.2917 21.4875 22.2917 21.4862C22.2917 21.485 22.2917 21.4837 22.2917 21.4825C22.2917 21.4812 22.2917 21.48 22.2917 21.4787C22.2917 21.4775 22.2917 21.4762 22.2917 21.475C22.2917 21.4738 22.2917 21.4726 22.2917 21.4714C22.2917 21.4702 22.2917 21.469 22.2917 21.4678C22.2917 21.4666 22.2917 21.4654 22.2917 21.4642C22.2917 21.4631 22.2917 21.4619 22.2917 21.4607C22.2917 21.4596 22.2917 21.4584 22.2917 21.4573C22.2917 21.4561 22.2917 21.455 22.2917 21.4539C22.2917 21.4528 22.2917 21.4516 22.2917 21.4505C22.2917 21.4494 22.2917 21.4483 22.2917 21.4472C22.2917 21.4461 22.2917 21.445 22.2917 21.444C22.2917 21.4429 22.2917 21.4418 22.2917 21.4407C22.2917 21.4397 22.2917 21.4386 22.2917 21.4376C22.2917 21.4365 22.2917 21.4355 22.2917 21.4344C22.2917 21.4334 22.2917 21.4324 22.2917 21.4314C22.2917 21.4303 22.2917 21.4293 22.2917 21.4283C22.2917 21.4273 22.2917 21.4263 22.2917 21.4253C22.2917 21.4243 22.2917 21.4234 22.2917 21.4224C22.2917 21.4214 22.2917 21.4204 22.2917 21.4195C22.2917 21.4185 22.2917 21.4176 22.2917 21.4166C22.2917 21.4157 22.2917 21.4147 22.2917 21.4138C22.2917 21.4129 22.2917 21.4119 22.2917 21.411C22.2917 21.4101 22.2917 21.4092 22.2917 21.4083C22.2917 21.4074 22.2917 21.4065 22.2917 21.4056C22.2917 21.4047 22.2917 21.4038 22.2917 21.4029C22.2917 21.4021 22.2917 21.4012 22.2917 21.4003C22.2917 21.3995 22.2917 21.3986 22.2917 21.3978C22.2917 21.3969 22.2917 21.3961 22.2917 21.3952C22.2917 21.3944 22.2917 21.3936 22.2917 21.3928C22.2917 21.3919 22.2917 21.3911 22.2917 21.3903C22.2917 21.3895 22.2917 21.3887 22.2917 21.3879C22.2917 21.3871 22.2917 21.3863 22.2917 21.3855C22.2917 21.3848 22.2917 21.384 22.2917 21.3832C22.2917 21.3824 22.2917 21.3817 22.2917 21.3809C22.2917 21.3802 22.2917 21.3794 22.2917 21.3787C22.2917 21.3779 22.2917 21.3772 22.2917 21.3765C22.2917 21.3757 22.2917 21.375 22.2917 21.3743C22.2917 21.3736 22.2917 21.3729 22.2917 21.3722C22.2917 21.3714 22.2917 21.3707 22.2917 21.3701C22.2917 21.3694 22.2917 21.3687 22.2917 21.368C22.2917 21.3673 22.2917 21.3666 22.2917 21.366C22.2917 21.3653 22.2917 21.3646 22.2917 21.364C22.2917 21.3633 22.2917 21.3627 22.2917 21.362C22.2917 21.3614 22.2917 21.3607 22.2917 21.3601C22.2917 21.3595 22.2917 21.3588 22.2917 21.3582C22.2917 21.3576 22.2917 21.357 22.2917 21.3564C22.2917 21.3558 22.2917 21.3552 22.2917 21.3546C22.2917 21.354 22.2917 21.3534 22.2917 21.3528C22.2917 21.3522 22.2917 21.3516 22.2917 21.351C22.2917 21.3505 22.2917 21.3499 22.2917 21.3493C22.2917 21.3488 22.2917 21.3482 22.2917 21.3476C22.2917 21.3471 22.2917 21.3465 22.2917 21.346C22.2917 21.3455 22.2917 21.3449 22.2917 21.3444C22.2917 21.3438 22.2917 21.3433 22.2917 21.3428C22.2917 21.3423 22.2917 21.3418 22.2917 21.3412C22.2917 21.3407 22.2917 21.3402 22.2917 21.3397C22.2917 21.3392 22.2917 21.3387 22.2917 21.3382C22.2917 21.3378 22.2917 21.3373 22.2917 21.3368C22.2917 21.3363 22.2917 21.3358 22.2917 21.3354C22.2917 21.3349 22.2917 21.3344 22.2917 21.334C22.2917 21.3335 22.2917 21.3331 22.2917 21.3326C22.2917 21.3322 22.2917 21.3317 22.2917 21.3313C22.2917 21.3308 22.2917 21.3304 22.2917 21.33C22.2917 21.3295 22.2917 21.3291 22.2917 21.3287C22.2917 21.3283 22.2917 21.3279 22.2917 21.3274C22.2917 21.327 22.2917 21.3266 22.2917 21.3262C22.2917 21.3258 22.2917 21.3254 22.2917 21.325C22.2917 21.3246 22.2917 21.3242 22.2917 21.3239C22.2917 21.3235 22.2917 21.3231 22.2917 21.3227C22.2917 21.3224 22.2917 21.322 22.2917 21.3216C22.2917 21.3213 22.2917 21.3209 22.2917 21.3205C22.2917 21.3202 22.2917 21.3198 22.2917 21.3195C22.2917 21.3191 22.2917 21.3188 22.2917 21.3185C22.2917 21.3181 22.2917 21.3178 22.2917 21.3174C22.2917 21.3171 22.2917 21.3168 22.2917 21.3165C22.2917 21.3161 22.2917 21.3158 22.2917 21.3155C22.2917 21.3152 22.2917 21.3149 22.2917 21.3146C22.2917 21.3143 22.2917 21.314 22.2917 21.3137C22.2917 21.3134 22.2917 21.3131 22.2917 21.3128C22.2917 21.3125 22.2917 21.3122 22.2917 21.3119C22.2917 21.3117 22.2917 21.3114 22.2917 21.3111C22.2917 21.3108 22.2917 21.3106 22.2917 21.3103C22.2917 21.31 22.2917 21.3098 22.2917 21.3095C22.2917 21.3093 22.2917 21.309 22.2917 21.3087C22.2917 21.3085 22.2917 21.3082 22.2917 21.308C22.2917 21.3078 22.2917 21.3075 22.2917 21.3073C22.2917 21.307 22.2917 21.3068 22.2917 21.3066C22.2917 21.3064 22.2917 21.3061 22.2917 21.3059C22.2917 21.3057 22.2917 21.3055 22.2917 21.3053C22.2917 21.305 22.2917 21.3048 22.2917 21.3046C22.2917 21.3044 22.2917 21.3042 22.2917 21.304C22.2917 21.3038 22.2917 21.3036 22.2917 21.3034C22.2917 21.3032 22.2917 21.303 22.2917 21.3028C22.2917 21.3026 22.2917 21.3024 22.2917 21.3023C22.2917 21.3021 22.2917 21.3019 22.2917 21.3017C22.2917 21.3016 22.2917 21.3014 22.2917 21.3012C22.2917 21.301 22.2917 21.3009 22.2917 21.3007C22.2917 21.3005 22.2917 21.3004 22.2917 21.3002C22.2917 21.3001 22.2917 21.2999 22.2917 21.2998C22.2917 21.2996 22.2917 21.2995 22.2917 21.2993C22.2917 21.2992 22.2917 21.299 22.2917 21.2989C22.2917 21.2987 22.2917 21.2986 22.2917 21.2985C22.2917 21.2983 22.2917 21.2982 22.2917 21.2981C22.2917 21.2979 22.2917 21.2978 22.2917 21.2977C22.2917 21.2975 22.2917 21.2974 22.2917 21.2973C22.2917 21.2972 22.2917 21.2971 22.2917 21.297C22.2917 21.2968 22.2917 21.2967 22.2917 21.2966C22.2917 21.2965 22.2917 21.2964 22.2917 21.2963C22.2917 21.2962 22.2917 21.2961 22.2917 21.296C22.2917 21.2959 22.2917 21.2958 22.2917 21.2957C22.2917 21.2956 22.2917 21.2955 22.2917 21.2954C22.2917 21.2953 22.2917 21.2952 22.2917 21.2951C22.2917 21.2951 22.2917 21.295 22.2917 21.2949C22.2917 21.2948 22.2917 21.2947 22.2917 21.2946C22.2917 21.2946 22.2917 21.2945 22.2917 21.2944C22.2917 21.2943 22.2917 21.2943 22.2917 21.2942C22.2917 21.2941 22.2917 21.2941 22.2917 21.294C22.2917 21.2939 22.2917 21.2939 22.2917 21.2938C22.2917 21.2937 22.2917 21.2937 22.2917 21.2936C22.2917 21.2936 22.2917 21.2935 22.2917 21.2934C22.2917 21.2934 22.2917 21.2933 22.2917 21.2933C22.2917 21.2932 22.2917 21.2932 22.2917 21.2931C22.2917 21.2931 22.2917 21.293 22.2917 21.293C22.2917 21.2929 22.2917 21.2929 22.2917 21.2929C22.2917 21.2928 22.2917 21.2928 22.2917 21.2927C22.2917 21.2927 22.2917 21.2927 22.2917 21.2926C22.2917 21.2926 22.2917 21.2925 22.2917 21.2925C22.2917 21.2925 22.2917 21.2924 22.2917 21.2924C22.2917 21.2924 22.2917 21.2924 22.2917 21.2923C22.2917 21.2923 22.2917 21.2923 22.2917 21.2922C22.2917 21.2922 22.2917 21.2922 22.2917 21.2922C22.2917 21.2921 22.2917 21.2921 22.2917 21.2921C22.2917 21.2921 22.2917 21.2921 22.2917 21.292C22.2917 21.292 22.2917 21.292 22.2917 21.292C22.2917 21.292 22.2917 21.2919 22.2917 21.2919C22.2917 21.2919 22.2917 21.2919 22.2917 21.2919C22.2917 21.2919 22.2917 21.2919 22.2917 21.2919C22.2917 21.2918 22.2917 21.2918 22.2917 21.2918C22.2917 21.2918 22.2917 21.2918 22.2917 21.2918C22.2917 21.2918 22.2917 21.2918 22.2917 21.2918C22.2917 21.2918 22.2917 21.2917 22.2917 21.2917C22.2917 21.2917 22.2917 21.2917 22.2917 21.2917C22.2917 21.2917 22.2917 21.2917 22.2917 21.2917C22.2917 21.2917 22.2917 21.2917 22.2917 21.2917C22.2917 21.2917 22.2917 21.2917 22.2917 21.2917C22.2917 21.2917 22.2917 21.2917 22.2917 21.2917C22.2917 21.2917 22.2917 21.2917 22.2917 21.2917C22.2917 21.2917 22.2917 21.2917 22.2917 21.2917C22.2917 21.2917 22.2917 21.2917 22.2917 21.2917C22.2917 21.2917 22.2917 21.2917 22.2917 21.2917V21.2917H21.2917ZM22.2917 21.2917V14H20.2917V21.2917H22.2917Z" fill="white"/>
</svg>
