<svg width="42" height="42" viewBox="0 0 42 42" fill="none" xmlns="http://www.w3.org/2000/svg">
<circle cx="21" cy="21" r="21" fill="#553D8E"/>
<path d="M15.7929 28.7071C16.1834 29.0976 16.8166 29.0976 17.2071 28.7071C17.5976 28.3166 17.5976 27.6834 17.2071 27.2929L15.7929 28.7071ZM12 23.5V22.5C11.5955 22.5 11.2309 22.7436 11.0761 23.1173C10.9213 23.491 11.0069 23.9211 11.2929 24.2071L12 23.5ZM30 24.5C30.5523 24.5 31 24.0523 31 23.5C31 22.9477 30.5523 22.5 30 22.5V24.5ZM26.2071 12.2931C25.8166 11.9025 25.1834 11.9025 24.7929 12.2931C24.4024 12.6836 24.4024 13.3168 24.7929 13.7073L26.2071 12.2931ZM30 17.5002V18.5002C30.4045 18.5002 30.7691 18.2565 30.9239 17.8829C31.0787 17.5092 30.9931 17.0791 30.7071 16.7931L30 17.5002ZM12 16.5002C11.4477 16.5002 11 16.9479 11 17.5002C11 18.0525 11.4477 18.5002 12 18.5002V16.5002ZM17.2071 27.2929L12.7071 22.7929L11.2929 24.2071L15.7929 28.7071L17.2071 27.2929ZM12 24.5H30V22.5H12V24.5ZM24.7929 13.7073L29.2929 18.2073L30.7071 16.7931L26.2071 12.2931L24.7929 13.7073ZM30 16.5002H12V18.5002H30V16.5002Z" fill="white"/>
</svg>
