<svg width="26" height="14" viewBox="0 0 26 14" fill="none" xmlns="http://www.w3.org/2000/svg">
<path d="M1.70711 6.29289C1.31658 5.90237 0.683417 5.90237 0.292893 6.29289C-0.0976311 6.68342 -0.0976311 7.31658 0.292893 7.70711L1.70711 6.29289ZM7 13L6.29289 13.7071C6.68342 14.0976 7.31658 14.0976 7.70711 13.7071L7 13ZM19.7071 1.70711C20.0976 1.31658 20.0976 0.683417 19.7071 0.292893C19.3166 -0.0976311 18.6834 -0.0976311 18.2929 0.292893L19.7071 1.70711ZM7.70712 6.29289C7.3166 5.90237 6.68343 5.90237 6.29291 6.29289C5.90238 6.68342 5.90238 7.31658 6.29291 7.70711L7.70712 6.29289ZM13 13L12.2929 13.7071C12.6834 14.0976 13.3166 14.0976 13.7071 13.7071L13 13ZM25.7071 1.70711C26.0976 1.31658 26.0976 0.683417 25.7071 0.292893C25.3166 -0.0976311 24.6834 -0.0976311 24.2929 0.292893L25.7071 1.70711ZM0.292893 7.70711L6.29289 13.7071L7.70711 12.2929L1.70711 6.29289L0.292893 7.70711ZM7.70711 13.7071L19.7071 1.70711L18.2929 0.292893L6.29289 12.2929L7.70711 13.7071ZM6.29291 7.70711L12.2929 13.7071L13.7071 12.2929L7.70712 6.29289L6.29291 7.70711ZM13.7071 13.7071L25.7071 1.70711L24.2929 0.292893L12.2929 12.2929L13.7071 13.7071Z" fill="black"/>
</svg>
