<svg width="19" height="17" viewBox="0 0 19 17" fill="none" xmlns="http://www.w3.org/2000/svg">
<path d="M4.54289 16.7071C4.93342 17.0976 5.56658 17.0976 5.95711 16.7071C6.34763 16.3166 6.34763 15.6834 5.95711 15.2929L4.54289 16.7071ZM1 11.75V10.75C0.595538 10.75 0.230901 10.9936 0.0761205 11.3673C-0.0786605 11.741 0.00689524 12.1711 0.292893 12.4571L1 11.75ZM18 12.75C18.5523 12.75 19 12.3023 19 11.75C19 11.1977 18.5523 10.75 18 10.75V12.75ZM14.4571 1.12621C14.0666 0.735689 13.4334 0.735689 13.0429 1.12621C12.6524 1.51674 12.6524 2.1499 13.0429 2.54043L14.4571 1.12621ZM18 6.08332V7.08332C18.4045 7.08332 18.7691 6.83968 18.9239 6.466C19.0787 6.09233 18.9931 5.66221 18.7071 5.37621L18 6.08332ZM1 5.08332C0.447715 5.08332 0 5.53103 0 6.08332C0 6.6356 0.447715 7.08332 1 7.08332L1 5.08332ZM5.95711 15.2929L1.70711 11.0429L0.292893 12.4571L4.54289 16.7071L5.95711 15.2929ZM1 12.75H18V10.75H1V12.75ZM13.0429 2.54043L17.2929 6.79043L18.7071 5.37621L14.4571 1.12621L13.0429 2.54043ZM18 5.08332L1 5.08332L1 7.08332L18 7.08332V5.08332Z" fill="black"/>
</svg>
