<svg width="16" height="16" viewBox="0 0 16 16" fill="none" xmlns="http://www.w3.org/2000/svg">
<path d="M5.98922 7.8891H0.989217C0.862255 7.8891 0.755884 7.78272 0.755884 7.65576V0.989095C0.755884 0.862133 0.862255 0.755762 0.989217 0.755762H5.98922C6.11618 0.755762 6.22255 0.862133 6.22255 0.989095V7.65576C6.22255 7.78272 6.11618 7.8891 5.98922 7.8891ZM5.98922 14.5558H0.989217C0.862254 14.5558 0.755884 14.4494 0.755884 14.3224V10.9891C0.755884 10.8621 0.862255 10.7558 0.989217 10.7558H5.98922C6.11618 10.7558 6.22255 10.8621 6.22255 10.9891V14.3224C6.22255 14.4494 6.11618 14.5558 5.98922 14.5558ZM14.3226 14.5558H9.32255C9.19559 14.5558 9.08922 14.4494 9.08922 14.3224V7.65576C9.08922 7.5288 9.19559 7.42243 9.32255 7.42243H14.3226C14.4495 7.42243 14.5559 7.5288 14.5559 7.65576V14.3224C14.5559 14.4494 14.4495 14.5558 14.3226 14.5558ZM9.08922 4.32243V0.989095C9.08922 0.862132 9.19559 0.755762 9.32255 0.755762H14.3226C14.4495 0.755762 14.5559 0.862132 14.5559 0.989095V4.32243C14.5559 4.44939 14.4495 4.55576 14.3226 4.55576H9.32255C9.19559 4.55576 9.08922 4.44939 9.08922 4.32243Z" stroke="#553D8E" stroke-width="1.2"/>
</svg>
